<svg width="25" height="25" viewBox="0 0 25 25" xmlns="http://www.w3.org/2000/svg" xmlns:xlink="http://www.w3.org/1999/xlink"><title>A6FB5938-9872-41F5-B10F-9D7F0B71A7F9</title><defs><linearGradient x1="50%" y1="0%" x2="50%" y2="102.843%" id="a"><stop stop-color="#FFF" offset="0%"/><stop stop-color="#DBF1FA" offset="85.567%"/><stop stop-color="#E4F5FC" offset="100%"/></linearGradient><path id="b" d="M0 7.486h5.713V.09H0z"/><path id="d" d="M.127.069h1.416v7.64H.127z"/></defs><g fill="none" fill-rule="evenodd"><path d="M7.521 23.021c1.526.637 3.21.99 4.979.99 6.904 0 12.5-5.375 12.5-12.005C25 5.376 19.404 0 12.5 0S0 5.375 0 12.006c0 3.428 1.496 6.52 3.895 8.708l-.152 4.236 3.778-1.929z" fill="url(#a)"/><g transform="translate(3.672 8.123)"><mask id="c" fill="#fff"><use xlink:href="#b"/></mask><path d="M1.953 6.115h3.012c.499 0 .748.228.748.685a.62.62 0 0 1-.229.488.772.772 0 0 1-.519.198H.873c-.264 0-.475-.07-.634-.21A.697.697 0 0 1 0 6.725c0-.126.028-.256.083-.39.02-.056.062-.13.125-.221L3.552 1.46H.832a.755.755 0 0 1-.526-.182.617.617 0 0 1-.202-.483c0-.2.07-.368.213-.503A.719.719 0 0 1 .83.09h3.802c.284 0 .5.073.65.218a.713.713 0 0 1 .222.53.94.94 0 0 1-.062.332c-.042.111-.097.222-.166.333L1.953 6.115z" fill="#0283CC" mask="url(#c)"/></g><path d="M10.801 12.876c0 .386.089.711.266.973.21.308.495.462.855.462.348 0 .623-.15.826-.452.184-.275.276-.603.276-.983 0-.374-.089-.695-.266-.964-.21-.315-.488-.472-.836-.472-.354 0-.636.154-.845.462-.184.275-.276.6-.276.974m3.639-1.75v3.5c0 .275-.026.472-.079.59-.105.223-.308.334-.61.334-.196 0-.344-.049-.442-.147-.098-.099-.174-.253-.226-.463-.19.217-.397.383-.62.497a1.588 1.588 0 0 1-.737.172c-.663 0-1.218-.257-1.667-.772-.45-.514-.674-1.168-.674-1.961 0-.774.227-1.423.679-1.948.452-.524 1.006-.786 1.662-.786.281 0 .539.052.772.157.232.105.427.269.585.492a.629.629 0 0 1 .221-.428.672.672 0 0 1 .447-.162c.302 0 .502.105.6.314.06.125.089.328.089.61" fill="#0283CC"/><g transform="translate(14.83 7.84)"><mask id="e" fill="#fff"><use xlink:href="#d"/></mask><path d="M.127 6.922V.856C.127.62.192.43.324.286a.658.658 0 0 1 .51-.217c.21 0 .381.072.512.216.131.145.197.335.197.571v6.066c0 .236-.066.426-.197.57a.659.659 0 0 1-.511.217.658.658 0 0 1-.511-.216c-.132-.145-.197-.335-.197-.571" fill="#0283CC" mask="url(#e)"/></g><path d="M19.274 11.44c-.354 0-.636.154-.845.462-.184.275-.276.6-.276.974 0 .386.089.71.266.973.21.308.495.462.855.462s.643-.15.846-.452c.183-.269.275-.597.275-.983 0-.374-.088-.695-.265-.964-.21-.315-.495-.472-.856-.472m0-1.298c.728 0 1.338.275 1.83.826.471.53.707 1.167.707 1.908 0 .76-.23 1.4-.688 1.917-.479.544-1.095.816-1.849.816-.747 0-1.357-.264-1.829-.791-.472-.528-.708-1.175-.708-1.942 0-.741.24-1.382.718-1.923.479-.54 1.085-.811 1.82-.811" fill="#0283CC"/></g></svg>